# xmcd
#
# Track frame offsets:
#	150
#	17183
#	33430
#	49563
#	67494
#	84181
#	101797
#	118081
#	136660
#	152351
#	167528
#	182872
#	198065
#	214456
#	230544
#	249500
#	266723
#	287215
#
# Disc length: 4040 seconds
#
# Revision: 1
# Processed by: cddbd v1.5.2PL0 Copyright (c) Steve Scherf et al.
# Submitted via: audiograbber 1.83.01
#
DISCID=000fc612
DTITLE=Compilation - Country Hits 2013
DYEAR=2013
DGENRE=Country
TTITLE0=Luke Bryan - Country Girl (Shake It For Me)
TTITLE1=Kip Moore - Somethin' Bout A Truck
TTITLE2=Florida Georgia Line - Cruise
TTITLE3=Zac Brown Band - Chicken Fried
TTITLE4=Eli Young Band - Even It It Breaks Your Heart
TTITLE5=Gloriana - (Kissed You) Good Night
TTITLE6=The Band Perry - Postcard From Paris
TTITLE7=Rascal Flatts - A Little Home
TTITLE8=Dean Brody - Bob Marley
TTITLE9=Easton Corbin - Lovin' You Is Fun
TTITLE10=Chad Brownlee - Smoke In The Rain
TTITLE11=Thomas Rhett - Something To Do With My Hands
TTITLE12=Dallas Smith - If It Gets You Where You Wanna Go
TTITLE13=Mavericks - Born To Be Blue
TTITLE14=Johnny Reid ft Carolyn Dawn Johnson - Baby I Know It
TTITLE15=Colt Ford ft Jake Owen - Back
TTITLE16=The Avett Brothers - Live And Die
TTITLE17=Phillip Phillips - Home
EXTD=
EXTT0=
EXTT1=
EXTT2=
EXTT3=
EXTT4=
EXTT5=
EXTT6=
EXTT7=
EXTT8=
EXTT9=
EXTT10=
EXTT11=
EXTT12=
EXTT13=
EXTT14=
EXTT15=
EXTT16=
EXTT17=
PLAYORDER=
